<svg width="64" height="32" viewBox="0 0 64 32" fill="none" xmlns="http://www.w3.org/2000/svg">
<path fill-rule="evenodd" clip-rule="evenodd" d="M26.3594 7.95537H25.4823H25.4031C25.2448 7.95537 25.0951 8.03408 25.0048 8.16567C24.9504 8.24807 24.9231 8.34646 24.9244 8.44607C24.9244 10.0756 24.9244 11.7051 24.9244 13.3359C24.9244 15.6135 24.9244 17.8911 24.9244 20.1687C24.9244 21.0235 24.9108 21.8733 25.5256 22.5546C26.5326 23.6701 28.5466 23.7598 29.9594 23.8594C31.9029 23.996 34.1111 23.9086 35.9198 23.124C36.0039 23.1609 36.093 23.1941 36.1845 23.2273C38.9333 24.2075 42 24.4447 44.8145 23.4561C45.0162 23.4118 45.725 23.0638 45.8673 23.1228C46.1939 23.2568 46.5304 23.3626 46.8743 23.4401C48.3254 23.7402 49.8062 23.8631 51.2871 23.8041H51.3081C52.1827 23.8041 53.0648 23.7008 53.9208 23.5335C54.6569 23.3897 55.4549 23.2335 56.0499 22.7501C57.0891 21.9065 56.8689 20.4762 56.8689 19.2882C56.8689 18.0559 56.8689 16.8236 56.8689 15.5926C56.8689 15.3208 56.8689 15.049 56.8689 14.7772C56.8652 14.5066 56.6474 14.2902 56.3814 14.2914H55.4264C54.8697 14.2902 54.3625 14.6161 54.1237 15.1277C54.0322 15.3208 53.9839 15.5323 53.9839 15.7475C53.9839 16.5088 53.9839 17.2713 53.9839 18.0325C53.9839 18.5995 53.9839 19.1664 53.9839 19.7334C53.9839 20.1282 54.125 20.9214 53.8095 21.1957C53.6586 21.326 53.4594 21.385 53.2652 21.433C51.6458 21.8364 49.9399 21.8155 48.2945 21.5363C47.1155 21.3359 47.3172 20.5537 47.3172 19.6006C47.3172 19.041 47.3172 18.4827 47.3172 17.9231C47.3172 17.0388 47.4421 16.0488 47.2281 15.1855C46.6727 12.9435 43.2249 12.9497 41.4038 12.903C40.3869 12.8759 39.3676 12.9386 38.3606 13.0887C37.1915 13.2633 35.7342 13.3764 34.9511 14.38C34.1396 15.4204 34.4649 16.8974 34.4649 18.1137C34.4649 18.6856 34.4649 19.2575 34.4649 19.8293C34.4649 20.598 34.5429 21.2645 33.6917 21.5941C33.3911 21.7109 33.0645 21.7466 32.7429 21.77C31.6419 21.8524 30.5309 21.8167 29.4373 21.6642C28.4563 21.5277 27.6868 21.1932 27.7153 20.0839C27.7512 18.6536 27.8031 17.2282 27.8031 15.793C27.8031 14.5755 27.8031 13.3568 27.8031 12.1392C27.8031 11.3275 27.8031 10.5171 27.8031 9.70541C27.8031 9.60703 27.8031 9.50987 27.8031 9.41148C27.8019 9.18643 27.7487 8.96506 27.6485 8.76337C27.4048 8.26652 26.905 7.95414 26.3594 7.95537ZM7.48866 7.95537H8.4437C8.82596 7.95537 9.19091 8.1091 9.46184 8.38335L9.49276 8.41656C9.56575 8.49404 9.63008 8.58012 9.68328 8.67113C9.81565 8.89496 9.88616 9.15076 9.88616 9.41148V23.3319C9.88616 23.4622 9.83544 23.5864 9.74389 23.6787C9.65235 23.7697 9.52988 23.8201 9.40122 23.8189H8.44617C8.24576 23.8189 8.04906 23.7734 7.86845 23.686C7.70144 23.6061 7.55175 23.4967 7.42433 23.3614C7.15835 23.0797 7.00619 22.7071 7 22.3173V8.44607C7.01113 8.17797 7.22515 7.96521 7.48866 7.96029V7.95537ZM18.8057 18.5946C19.2906 18.5442 19.7731 18.4864 20.2518 18.4322C20.3694 18.4187 20.4857 18.4052 20.6044 18.4052H20.6094V21.0579C20.6131 21.2067 20.5624 21.3506 20.4659 21.4625C19.8919 22.0602 18.5657 21.9495 17.8073 21.9766C17.0391 22.0036 16.2684 21.984 15.5026 21.9176C14.9645 21.8708 14.2061 21.6249 13.8115 22.1291C13.7336 22.2299 13.6729 22.3418 13.6309 22.4636C13.5777 22.6124 13.5381 22.7649 13.5109 22.9199C13.4527 23.1584 13.5752 23.4056 13.7991 23.4991C13.8758 23.5286 13.9599 23.5557 14.0527 23.5815C16.2511 23.932 18.63 24.0255 20.816 23.5532C21.2885 23.4511 21.7611 23.3171 22.1755 23.0711C22.6914 22.7649 23.0601 22.2816 23.2023 21.7011C23.2531 21.4896 23.2778 21.2719 23.2766 21.0542V10.8061C23.2766 10.5835 23.2469 10.3621 23.1887 10.1481C22.7013 8.33785 20.1912 8.14723 18.6325 8.0058C17.4931 7.90126 16.3426 7.93078 15.2094 8.09434C14.2098 8.23823 12.8985 8.38581 12.1327 9.10526L12.1006 9.13723C11.9323 9.32048 11.7925 9.52832 11.6837 9.75338C11.6243 9.87759 11.5748 10.0067 11.5352 10.1395C11.4461 10.4556 11.4016 10.7827 11.4004 11.1111V11.2181V16.0771C11.3967 16.1128 11.3967 16.1497 11.4004 16.1854C11.4202 16.328 11.4474 16.4682 11.4857 16.6072C11.5909 17.0204 11.8 17.3967 12.0944 17.7005C12.1562 17.7644 12.2218 17.8247 12.2899 17.88C12.6028 18.126 12.9604 18.3056 13.3426 18.4089C15.1278 18.886 16.9809 18.7852 18.8057 18.5946ZM20.6057 10.9684V16.301C18.6585 16.5297 16.7385 16.8249 14.7789 16.5481C14.7121 16.5371 14.6465 16.5211 14.5822 16.5002C14.5476 16.4903 14.5142 16.4805 14.482 16.467C14.409 16.4387 14.3397 16.3969 14.2804 16.3452C14.2234 16.296 14.1777 16.2345 14.1455 16.1669C14.101 16.0734 14.0725 15.9726 14.0589 15.8693V15.3478V14.1734V12.9854V11.7703V11.5834C14.0404 11.1123 14.1678 10.5958 14.649 10.4101C14.821 10.3437 15.0053 10.3191 15.1884 10.2957C16.0927 10.1801 17.0032 10.0817 17.9162 10.0977C18.7735 10.1125 19.7075 10.1838 20.4646 10.6192C20.5129 10.6684 20.55 10.7262 20.576 10.7901C20.5958 10.8467 20.6069 10.9069 20.6057 10.9684ZM39.4319 21.6704C39.8909 21.7097 40.3869 21.7294 40.8954 21.7294H41.0711C41.6525 21.7269 42.2327 21.6913 42.8104 21.6236C43.3251 21.6027 43.8273 21.4588 44.2764 21.203L44.2974 21.1797C44.342 21.1366 44.3778 21.0837 44.4026 21.0272C44.4236 20.9694 44.4335 20.9091 44.431 20.8476V15.9259C44.431 15.8644 44.4199 15.8041 44.3964 15.7475C44.3717 15.6897 44.3358 15.6381 44.2912 15.595L44.2789 15.5827C44.217 15.5299 44.149 15.4868 44.076 15.4536C43.043 15.1326 41.9642 14.9949 40.8867 15.0465C40.1594 15.0814 38.5709 15.1302 37.4995 15.579L37.4835 15.5975C37.4612 15.6196 37.4414 15.643 37.4241 15.6688C37.4068 15.6947 37.3919 15.7217 37.3795 15.75C37.356 15.8066 37.3449 15.8668 37.3449 15.9283V20.8501C37.3449 20.9116 37.356 20.9718 37.3795 21.0284C37.4006 21.0776 37.429 21.1231 37.4637 21.1624L37.4835 21.1809L37.5057 21.2055C37.5602 21.251 37.6208 21.2891 37.6851 21.3186C38.2418 21.5289 38.8282 21.6482 39.422 21.6716L39.4319 21.6704ZM55.9819 9.65745H54.9254C54.365 9.65622 53.9097 10.1162 53.906 10.6856V11.4948C53.9097 12.0642 54.3662 12.5242 54.9254 12.5242H55.9819C56.5423 12.5254 56.9975 12.0654 57.0012 11.4948V10.6868C56.9975 10.1162 56.5423 9.65622 55.9819 9.65745Z" fill="white"/>
</svg>
