<svg width="10" height="6" viewBox="0 0 10 6" fill="none" xmlns="http://www.w3.org/2000/svg">
<path d="M5.00002 5.91664C4.72484 5.91957 4.45808 5.82176 4.25002 5.64164L0.725019 2.51747C0.528679 2.35328 0.415222 2.1105 0.415222 1.85456C0.415222 1.59861 0.528679 1.35583 0.725019 1.19164C1.15725 0.82349 1.79279 0.82349 2.22502 1.19164L5.00252 3.65247L7.77919 1.19164C8.21142 0.82349 8.84695 0.82349 9.27919 1.19164C9.47553 1.35583 9.58898 1.59861 9.58898 1.85456C9.58898 2.1105 9.47553 2.35328 9.27919 2.51747L5.75419 5.64164C5.54505 5.82272 5.27663 5.9206 5.00002 5.91664Z" fill="#6EB8FF"/>
</svg>
