<svg width="12" height="7" viewBox="0 0 12 7" fill="none" xmlns="http://www.w3.org/2000/svg">
<path d="M6.00005 6.50011C5.66983 6.50363 5.34972 6.38626 5.10005 6.17011L0.870048 2.42111C0.634439 2.22408 0.498291 1.93275 0.498291 1.62561C0.498291 1.31848 0.634439 1.02714 0.870048 0.830113C1.38873 0.388335 2.15137 0.388335 2.67005 0.830113L6.00305 3.78311L9.33505 0.830113C9.85373 0.388335 10.6164 0.388335 11.135 0.830113C11.3707 1.02714 11.5068 1.31848 11.5068 1.62561C11.5068 1.93275 11.3707 2.22408 11.135 2.42111L6.90505 6.17011C6.65408 6.38741 6.33198 6.50486 6.00005 6.50011Z" fill="#AAAAAA"/>
</svg>
