<svg width="12" height="7" viewBox="0 0 12 7" fill="none" xmlns="http://www.w3.org/2000/svg">
<path d="M6 0.500009C6.33022 0.496487 6.65032 0.61386 6.9 0.830009L11.13 4.57901C11.3656 4.77604 11.5018 5.06737 11.5018 5.37451C11.5018 5.68164 11.3656 5.97298 11.13 6.17001C10.6113 6.61179 9.84868 6.61179 9.33 6.17001L5.997 3.21701L2.665 6.17001C2.14632 6.61179 1.38368 6.61179 0.864998 6.17001C0.629389 5.97298 0.493241 5.68164 0.493241 5.37451C0.493241 5.06737 0.629389 4.77604 0.864998 4.57901L5.095 0.830009C5.34597 0.612709 5.66806 0.495259 6 0.500009Z" fill="#AAAAAA"/>
</svg>
